{"title":"Resolution (2012) WEBRip","uid":8358757,"size":1124065524,"categoryP":"video","categoryS":"movies","magnet":"?xt=urn:btih:4a8062ba59f6c9f68b9b9e38f736a26b572ab83a&amp;dn=Resolution+%282012%29+WEBRip&amp;tr=udp%3A%2F%2Ftracker.openbittorrent.com%3A80&amp;tr=udp%3A%2F%2Fopen.demonii.com%3A1337&amp;tr=udp%3A%2F%2Ftracker.coppersurfer.tk%3A6969&amp;tr=udp%3A%2F%2Fexodus.desync.com%3A6969","seeders":1,"leechers":0,"uploader":"RadioResearch","files":3,"time":1365561106,"description":"*******************************************************************************\n                           Resolution (2012) WEBRip\n*******************************************************************************\n\n-------------------------------------------------------------------------------\n                              General Information\n-------------------------------------------------------------------------------\nType.................: Movie\n\n\n\nVideo Format.........: AVI\nVideo Bitrate........: 1611\nResolution...........: 640 x 360\nColor................: 8 bit\nFPS..................: 29.970\nSource...............: WEB 16:9\nOriginal Format......: NTSC\nGenre................: Horror / Mystery / Thriller\nIMDb Rating..........: 6.8\nMovie Information....: http://www.imdb.com/title/tt1977895/\n\n-------------------------------------------------------------------------------\n                               Post Information\n-------------------------------------------------------------------------------\nPosted by............: RadioResearch\nPosted on............: 4/9/2013\n\n-------------------------------------------------------------------------------\n                                 Release Notes\n-------------------------------------------------------------------------------\nSEEDBOX SUPPORTED!!\n\nMichael (Peter Cilella) is committed to getting his best friend Chris (Vinny \nCurran) to sober up and get his life back on track. But what begins as an \nattempt to save his friend's life quickly takes an unexpected turn as the two \nfriends confront personal demons, the consequences of past actions, and forces \nbeyond their control. Expertly balancing dark humor with genuine thrills and \nunexpected pathos, Resolution is an utterly unique cinematic experience that \ndefies genre classification.\n\n(This isn't due for release until June.  You got it here first.)\n\nEnjoy!\n\nRadioResearch\n\nGeneral\nComplete name                            : G:Resolution (2012) WEBRip\nResolution.avi\nFormat                                   : AVI\nFormat/Info                              : Audio Video Interleave\nFile size                                : 1.05 GiB\nDuration                                 : 1h 33mn\nOverall bit rate                         : 1 611 Kbps\n\nVideo\nID                                       : 0\nFormat                                   : MPEG-4 Visual\nFormat profile                           : Simple@L3\nFormat settings, BVOP                    : No\nFormat settings, QPel                    : No\nFormat settings, GMC                     : No warppoints\nFormat settings, Matrix                  : Default (H.263)\nCodec ID                                 : XVID\nCodec ID/Hint                            : XviD\nDuration                                 : 1h 33mn\nBit rate                                 : 1 469 Kbps\nWidth                                    : 640 pixels\nHeight                                   : 360 pixels\nDisplay aspect ratio                     : 16:9\nFrame rate                               : 29.970 fps\nOriginal frame rate                      : 29.000 fps\nColor space                              : YUV\nChroma subsampling                       : 4:2:0\nBit depth                                : 8 bits\nScan type                                : Progressive\nCompression mode                         : Lossy\nBits/(Pixel*Frame)                       : 0.213\nStream size                              : 978 MiB (91%)\nWriting library                          : XviD 1.2.1 (UTC 2008-12-04)\n\nAudio\nID                                       : 1\nFormat                                   : MPEG Audio\nFormat version                           : Version 1\nFormat profile                           : Layer 3\nMode                                     : Joint stereo\nMode extension                           : MS Stereo\nCodec ID                                 : 55\nCodec ID/Hint                            : MP3\nDuration                                 : 1h 33mn\nBit rate mode                            : Constant\nBit rate                                 : 128 Kbps\nChannel(s)                               : 2 channels\nSampling rate                            : 44.1 KHz\nCompression mode                         : Lossy\nStream size                              : 85.2 MiB (8%)\nAlignment                                : Aligned on interleaves\nInterleave, duration                     : 26 ms (0.78 video frame)\nWriting library                          : LAME3.98.2\n\n\n\n\n-------------------------------------------------------------------------------\nGenerated with Cool NFO Creator - http://fly.to/coolbeans\n-------------------------------------------------------------------------------\n","torrent":{"xt":"urn:btih:4a8062ba59f6c9f68b9b9e38f736a26b572ab83a","amp;dn":"Resolution+%282012%29+WEBRip","amp;tr":["udp%3A%2F%2Ftracker.openbittorrent.com%3A80","udp%3A%2F%2Fopen.demonii.com%3A1337","udp%3A%2F%2Ftracker.coppersurfer.tk%3A6969","udp%3A%2F%2Fexodus.desync.com%3A6969"],"infoHash":"4a8062ba59f6c9f68b9b9e38f736a26b572ab83a","infoHashBuffer":{"type":"Buffer","data":[74,128,98,186,89,246,201,246,139,155,158,56,247,54,162,107,87,42,184,58]},"announce":[],"urlList":[]}}